<svg xmlns="http://www.w3.org/2000/svg" viewBox="0 0 400 325.08"><defs><style>.cls-1{fill:#fff;}</style></defs><title>Twitter_Logo_WhiteOnImage</title><g id="Logo_FIXED" data-name="Logo — FIXED"><path class="cls-1" d="M125.8,363.2c151,0,233.49-125.06,233.49-233.5,0-3.55-.07-7.09-.23-10.61A167.07,167.07,0,0,0,400,76.6a164.09,164.09,0,0,1-47.13,12.92A82.41,82.41,0,0,0,389,44.12,164.47,164.47,0,0,1,336.85,64,82.14,82.14,0,0,0,197,138.89,233,233,0,0,1,27.84,53.14,82.14,82.14,0,0,0,53.25,162.7a81.45,81.45,0,0,1-37.17-10.26c0,.34,0,.68,0,1A82.11,82.11,0,0,0,81.9,233.94a82.54,82.54,0,0,1-21.64,2.88,81.6,81.6,0,0,1-15.42-1.48,82.14,82.14,0,0,0,76.66,57A164.61,164.61,0,0,1,19.58,327.47,168.65,168.65,0,0,1,0,326.34,232.37,232.37,0,0,0,125.8,363.2" transform="translate(0 -38.11)"/></g></svg>