<svg id="Layer_1" data-name="Layer 1" xmlns="http://www.w3.org/2000/svg" viewBox="0 0 350 246.59"><defs><style>.cls-1{fill:#fff;}</style></defs><title>yt_icon_rgb</title><path class="cls-1" d="M342,101A44,44,0,0,0,311,69.86C283.74,62.5,174.3,62.5,174.3,62.5s-109.45,0-136.75,7.36A44,44,0,0,0,6.61,101C-.7,128.48-.7,185.8-.7,185.8s0,57.31,7.31,84.79a44,44,0,0,0,30.94,31.14c27.3,7.36,136.75,7.36,136.75,7.36s109.44,0,136.74-7.36A44,44,0,0,0,342,270.59c7.32-27.48,7.32-84.79,7.32-84.79S349.3,128.48,342,101ZM138.5,237.84V133.76l91.48,52Z" transform="translate(0.7 -62.5)"/></svg>